<svg xmlns="http://www.w3.org/2000/svg" width="120" height="120" viewBox="0 0 120 120">
  <g id="Group_9837" data-name="Group 9837" transform="translate(7098 5328)">
    <rect id="Rectangle_3565" data-name="Rectangle 3565" width="120" height="120" transform="translate(-7098 -5328)" fill="none"/>
    <g id="Group_9836" data-name="Group 9836" transform="translate(78 -148)">
      <path id="Path_10861" data-name="Path 10861" d="M61.443,34.472c0-9.448-7.293-17.108-16.288-17.108h-.243v-.255C44.912,7.66,37.619,0,28.624,0s-12.69,7.609-13.76,17.108L12.336,51.58l33.451-1.992C55.074,48.771,61.443,43.919,61.443,34.472Z" transform="translate(-7127.478 -5173)" fill="#29c7c4"/>
      <path id="Path_10862" data-name="Path 10862" d="M0,30.077c0,9.448,7.293,17.108,16.288,17.108h.243v.255c0,9.448,7.293,17.108,16.288,17.108s12.739-7.609,13.76-17.108l2.529-34.471L15.656,14.961C6.369,15.778,0,20.579,0,30.077Z" transform="translate(-7166 -5132.5)" fill="#3f55c8"/>
      <path id="Path_10863" data-name="Path 10863" d="M28.636,64.537c8.995,0,16.288-7.661,16.288-17.108v-.256h.243c8.995,0,16.288-7.66,16.288-17.108S54.21,16.685,45.167,15.613L12.347,12.957l1.9,35.136C15.021,57.846,19.592,64.537,28.636,64.537Z" transform="translate(-7127.441 -5132.539)" fill="#527fd8"/>
      <path id="Path_10864" data-name="Path 10864" d="M32.819,0C23.824,0,16.531,7.66,16.531,17.108v.255h-.243C7.293,17.363,0,25.024,0,34.472s7.245,13.38,16.288,14.453L49.108,51.58l-1.9-35.135C46.433,6.69,41.814,0,32.819,0Z" transform="translate(-7166 -5173)" fill="#54d8b0"/>
    </g>
  </g>
</svg>
